name ./resultDataOpenSim/trcMotMarkerGrf/sub10/grf-02-03.mot
datacolumns 19
datarows 15
range 1.42800000 1.48400000
endheader

                time	     ground_force_vx	     ground_force_vy	     ground_force_vz	     ground_force_px	     ground_force_py	     ground_force_pz	   l_ground_force_vx	   l_ground_force_vy	   l_ground_force_vz	   l_ground_force_px	   l_ground_force_py	   l_ground_force_pz	     ground_torque_x	     ground_torque_y	     ground_torque_z	   l_ground_torque_x	   l_ground_torque_y	   l_ground_torque_z	
          1.42800000	        -44.19725038	        432.04032679	        -23.76748213	          0.90230758	          0.00000000	          0.04269055	          0.00000000	          0.00000000	          0.00000000	          0.00000000	          0.00000000	          0.00000000	          0.00000000	         -0.44532458	          0.00000000	          0.00000000	          0.00000000	          0.00000000	
          1.43200000	        -39.43380396	        423.83569414	        -22.57652431	          0.90389660	          0.00000000	          0.04277782	          0.00000000	          0.00000000	          0.00000000	          0.00000000	          0.00000000	          0.00000000	          0.00000000	         -0.31327539	          0.00000000	          0.00000000	          0.00000000	          0.00000000	
          1.43600000	        -35.90425392	        416.55487620	        -20.95227440	          0.90548127	          0.00000000	          0.04283270	          0.00000000	          0.00000000	          0.00000000	          0.00000000	          0.00000000	          0.00000000	          0.00000000	         -0.18330670	          0.00000000	          0.00000000	          0.00000000	          0.00000000	
          1.44000000	        -33.97174642	        410.19548803	        -19.18308510	          0.90712926	          0.00000000	          0.04286229	          0.00000000	          0.00000000	          0.00000000	          0.00000000	          0.00000000	          0.00000000	          0.00000000	         -0.04599421	          0.00000000	          0.00000000	          0.00000000	          0.00000000	
          1.44400000	        -33.57948115	        404.75269749	        -17.57092453	          0.90884321	          0.00000000	          0.04288064	          0.00000000	          0.00000000	          0.00000000	          0.00000000	          0.00000000	          0.00000000	          0.00000000	          0.10316580	          0.00000000	          0.00000000	          0.00000000	          0.00000000	
          1.44800000	        -34.27939345	        400.22195592	        -16.37374907	          0.91055726	          0.00000000	          0.04290423	          0.00000000	          0.00000000	          0.00000000	          0.00000000	          0.00000000	          0.00000000	          0.00000000	          0.26304885	          0.00000000	          0.00000000	          0.00000000	          0.00000000	
          1.45200000	        -35.35853775	        396.59266583	        -15.76348347	          0.91215918	          0.00000000	          0.04295150	          0.00000000	          0.00000000	          0.00000000	          0.00000000	          0.00000000	          0.00000000	          0.00000000	          0.42748589	          0.00000000	          0.00000000	          0.00000000	          0.00000000	
          1.45600000	        -36.02747731	        393.82341039	        -15.80769198	          0.91352990	          0.00000000	          0.04304107	          0.00000000	          0.00000000	          0.00000000	          0.00000000	          0.00000000	          0.00000000	          0.00000000	          0.58708704	          0.00000000	          0.00000000	          0.00000000	          0.00000000	
          1.46000000	        -35.62714658	        391.82342115	        -16.47380953	          0.91456837	          0.00000000	          0.04318648	          0.00000000	          0.00000000	          0.00000000	          0.00000000	          0.00000000	          0.00000000	          0.00000000	          0.73201329	          0.00000000	          0.00000000	          0.00000000	          0.00000000	
          1.46400000	        -33.80049418	        390.47013028	        -17.64559373	          0.91521451	          0.00000000	          0.04339191	          0.00000000	          0.00000000	          0.00000000	          0.00000000	          0.00000000	          0.00000000	          0.00000000	          0.85503227	          0.00000000	          0.00000000	          0.00000000	          0.00000000	
          1.46800000	        -30.58115471	        389.65808517	        -19.14419470	          0.91547513	          0.00000000	          0.04364866	          0.00000000	          0.00000000	          0.00000000	          0.00000000	          0.00000000	          0.00000000	          0.00000000	          0.95391006	          0.00000000	          0.00000000	          0.00000000	          0.00000000	
          1.47200000	        -26.37541894	        389.34148869	        -20.75758770	          0.91542436	          0.00000000	          0.04393453	          0.00000000	          0.00000000	          0.00000000	          0.00000000	          0.00000000	          0.00000000	          0.00000000	          1.03225934	          0.00000000	          0.00000000	          0.00000000	          0.00000000	
          1.47600000	        -21.83894859	        389.53788275	        -22.27975689	          0.91519139	          0.00000000	          0.04422507	          0.00000000	          0.00000000	          0.00000000	          0.00000000	          0.00000000	          0.00000000	          0.00000000	          1.09847725	          0.00000000	          0.00000000	          0.00000000	          0.00000000	
          1.48000000	        -17.68118145	        390.29810750	        -23.54706778	          0.91492994	          0.00000000	          0.04450234	          0.00000000	          0.00000000	          0.00000000	          0.00000000	          0.00000000	          0.00000000	          0.00000000	          1.16317157	          0.00000000	          0.00000000	          0.00000000	          0.00000000	
          1.48400000	        -14.46091431	        391.68000405	        -24.45988581	          0.91474494	          0.00000000	          0.04474960	          0.00000000	          0.00000000	          0.00000000	          0.00000000	          0.00000000	          0.00000000	          0.00000000	          1.23610210	          0.00000000	          0.00000000	          0.00000000	          0.00000000	
